<?xml version="1.0" encoding="UTF-8"?>
<svg xmlns="http://www.w3.org/2000/svg" width="64" height="64" viewBox="0 0 64 64" role="img" aria-labelledby="logoTitle logoDesc">
    <title id="logoTitle">Bookly — логотип</title>
    <desc id="logoDesc">Иконка открытой книги в тёплых оранжевых тонах</desc>

    <!-- фон (прозрачный) -->
    <rect width="64" height="64" fill="none"/>

    <!-- левая страница -->
    <path d="M10 14c6 0 12 2 18 6v20c-6-4-12-6-18-6V14z" fill="#ffb74d"/>

    <!-- правая страница -->
    <path d="M54 14c-6 0-12 2-18 6v20c6-4 12-6 18-6V14z" fill="#ff9800"/>

    <!-- сгиб/тень в центре -->
    <path d="M32 20c-1.5 0-3.2 0.5-4.9 1.3v20.4c1.7 0.8 3.4 1.3 4.9 1.3s3.2-0.5 4.9-1.3V21.3C35.2 20.5 33.5 20 32 20z" fill="#ffb74d" opacity="0.12"/>

    <!-- контур страниц (тонкая линия) -->
    <g stroke="#e65100" stroke-width="0.8" fill="none" opacity="0.15">
        <path d="M10 14c6 0 12 2 18 6v20c-6-4-12-6-18-6V14z"/>
        <path d="M54 14c-6 0-12 2-18 6v20c6-4 12-6 18-6V14z"/>
    </g>
</svg>
